<?xml version="1.0" standalone="no"?>
<!DOCTYPE svg PUBLIC "-//W3C//DTD SVG 20010904//EN"
 "http://www.w3.org/TR/2001/REC-SVG-20010904/DTD/svg10.dtd">
<svg version="1.0" xmlns="http://www.w3.org/2000/svg"
 width="700.000000pt" height="700.000000pt" viewBox="0 0 700.000000 700.000000"
 preserveAspectRatio="xMidYMid meet">
<metadata>
Created by potrace 1.11, written by Peter Selinger 2001-2013
</metadata>
<g transform="translate(0.000000,700.000000) scale(0.100000,-0.100000)"
fill="#000000" stroke="none">
<path d="M4048 6111 c-48 -24 -66 -56 -103 -186 -18 -66 -59 -208 -90 -315
-31 -107 -63 -217 -71 -245 -8 -27 -16 -57 -18 -65 -6 -22 -124 -430 -135
-465 -6 -16 -23 -77 -40 -135 -16 -58 -73 -256 -126 -440 -54 -184 -102 -351
-107 -370 -13 -51 -42 -151 -178 -615 -34 -115 -63 -217 -65 -225 -2 -8 -45
-157 -95 -330 -51 -173 -100 -344 -110 -380 -10 -36 -38 -135 -63 -220 -180
-615 -297 -1033 -297 -1060 0 -43 27 -86 65 -104 49 -23 255 -78 292 -78 38 0
75 21 98 56 8 12 31 79 51 147 19 68 39 138 45 154 11 36 148 507 159 550 12
49 178 624 200 695 11 36 40 135 64 220 66 229 189 654 263 910 78 269 93 320
98 340 2 8 45 157 95 330 51 173 95 329 100 345 4 17 42 148 84 293 42 144
110 380 152 525 41 144 89 306 105 361 35 120 37 171 6 206 -30 33 -54 44
-172 76 -155 42 -171 44 -207 25z"/>
<path d="M1873 5399 c-43 -12 -1862 -1829 -1865 -1862 -1 -12 -2 -33 -3 -47
-1 -14 9 -40 22 -57 51 -70 1808 -1816 1840 -1830 34 -14 67 -12 100 5 22 12
215 206 239 240 19 27 21 80 4 113 -7 13 -352 365 -768 781 l-757 758 766 767
c822 824 791 788 765 863 -14 39 -220 248 -263 266 -36 16 -36 16 -80 3z"/>
<path d="M5052 5397 c-18 -7 -78 -57 -133 -111 -109 -109 -136 -141 -139 -171
-8 -74 -39 -40 767 -847 l768 -768 -767 -767 c-811 -812 -785 -783 -766 -856
8 -31 -1 -21 142 -165 119 -120 146 -135 208 -109 33 14 1810 1780 1846 1834
22 34 25 60 11 100 -14 44 -1806 1839 -1856 1859 -38 16 -38 16 -81 1z"/>
</g>
</svg>
