<svg viewBox="0 0 496 512" xmlns="http://www.w3.org/2000/svg"
  xmlns:svg="http://www.w3.org/2000/svg"
  xmlns:xlink="http://www.w3.org/1999/xlink">
  <title>ZhenQuote Logo</title>
  <g display="inline">
    <path id="face" fill="Purple"
      d="m248,8c-137,0 -248,111 -248,248s111,248 248,248s248,-111 248,-248s-111,-248 -248,-248zm0,448c-110.300003,0 -200,-89.700012 -200,-200s89.699997,-200 200,-200s200,89.699997 200,200s-89.700012,200 -200,200zm84,-143.399994c-20.799988,25 -51.5,39.399994 -84,39.399994s-63.199997,-14.299988 -84,-39.399994c-8.5,-10.200012 -23.699997,-11.5 -33.800003,-3.100006c-10.199997,8.5 -11.5,23.600006 -3.099998,33.799988c30.000008,36 74.099998,56.600006 120.900002,56.600006s90.899994,-20.600006 120.899994,-56.600006c8.5,-10.199982 7.100006,-25.299988 -3.100006,-33.799988c-10.099976,-8.399994 -25.299988,-7.100006 -33.799988,3.100006z" />
    <use id="link_quote" xlink:href="#quote" x="431.72713"
      y="296.369431"
      transform="matrix(0.4929 0 0 0.374302 -87.0375 -25.4317)" />
    <circle id="eye_left" fill="Purple" opacity="0.7"
      r="22.54163" cy="220.124999" cx="180.999999" stroke-linecap="null"
      stroke-linejoin="null" stroke-dasharray="null" stroke-width="null" />
    <circle id="eye_right" fill="Purple" opacity="0.7"
      r="22.54163" cy="220.124995" cx="318.499999" stroke-linecap="null"
      stroke-linejoin="null" stroke-dasharray="null" stroke-width="null" />
  </g>
  <defs>
    <symbol id="quote" viewBox="0 0 512 512"
      xmlns="http://www.w3.org/2000/svg">
      <path fill="Gold"
        d="m464,256l-80,0l0,-64c0,-35.300003 28.700012,-64 64,-64l8,0c13.299988,0 24,-10.699997 24,-24l0,-48c0,-13.299999 -10.700012,-24 -24,-24l-8,0c-88.399994,0 -160,71.599998 -160,160l0,240c0,26.5 21.5,48 48,48l128,0c26.5,0 48,-21.5 48,-48l0,-128c0,-26.5 -21.5,-48 -48,-48zm-288,0l-80,0l0,-64c0,-35.300003 28.699997,-64 64,-64l8,0c13.300003,0 24,-10.699997 24,-24l0,-48c0,-13.299999 -10.699997,-24 -24,-24l-8,0c-88.400002,0 -160,71.599998 -160,160l0,240c0,26.5 21.5,48 48,48l128,0c26.5,0 48,-21.5 48,-48l0,-128c0,-26.5 -21.5,-48 -48,-48z" />
    </symbol>
  </defs>
</svg>