<?xml version="1.0" standalone="no"?>
<!DOCTYPE svg PUBLIC "-//W3C//DTD SVG 20010904//EN"
 "http://www.w3.org/TR/2001/REC-SVG-20010904/DTD/svg10.dtd">
<svg version="1.0" xmlns="http://www.w3.org/2000/svg"
 width="1024.000000pt" height="1024.000000pt" viewBox="0 0 1024.000000 1024.000000"
 preserveAspectRatio="xMidYMid meet">
<metadata>
Created by potrace 1.14, written by Peter Selinger 2001-2017
</metadata>
<g transform="translate(0.000000,1024.000000) scale(0.100000,-0.100000)"
fill="#000000" stroke="none">
<path d="M4997 10083 c-4 -4 -44 -8 -90 -9 -77 -2 -208 -10 -287 -19 -101 -10
-216 -25 -245 -32 -11 -2 -33 -6 -50 -7 -16 -2 -57 -9 -90 -15 -33 -6 -73 -14
-90 -17 -16 -3 -46 -9 -65 -14 -19 -5 -46 -11 -60 -13 -92 -17 -529 -143 -561
-163 -5 -3 -19 -7 -31 -9 -12 -3 -24 -8 -27 -12 -3 -5 -10 -8 -16 -8 -25 -1
-95 -29 -95 -38 0 -6 -3 -8 -6 -5 -6 7 -44 -8 -214 -85 -41 -18 -90 -40 -107
-48 -18 -7 -33 -17 -33 -21 0 -5 -6 -8 -14 -8 -7 0 -42 -16 -77 -35 -35 -19
-75 -40 -89 -47 -14 -7 -27 -15 -30 -18 -3 -3 -21 -12 -40 -21 -36 -17 -256
-150 -276 -167 -6 -5 -37 -27 -70 -48 -32 -21 -71 -48 -85 -59 -15 -11 -39
-29 -55 -40 -37 -27 -166 -126 -181 -139 -6 -6 -26 -22 -44 -36 -18 -14 -43
-34 -56 -45 -12 -11 -48 -42 -80 -70 -77 -66 -378 -367 -426 -427 -22 -25 -54
-64 -74 -85 -19 -21 -55 -65 -81 -98 -25 -33 -51 -65 -57 -71 -5 -6 -17 -22
-25 -34 -8 -13 -23 -32 -32 -42 -10 -10 -18 -21 -18 -25 0 -4 -8 -16 -18 -27
-48 -53 -262 -384 -262 -405 0 -6 -4 -11 -10 -11 -5 0 -10 -4 -10 -10 0 -5
-14 -33 -31 -62 -54 -90 -174 -336 -232 -473 -61 -145 -69 -166 -73 -180 -1
-5 -10 -28 -19 -49 -9 -22 -18 -47 -20 -55 -2 -9 -15 -46 -29 -84 -14 -37 -25
-68 -25 -70 0 -1 -2 -9 -5 -17 -13 -41 -27 -89 -31 -106 -2 -10 -10 -40 -18
-66 -8 -27 -13 -48 -10 -48 3 0 0 -7 -7 -15 -7 -8 -10 -15 -7 -15 3 0 1 -15
-4 -32 -5 -18 -12 -46 -15 -62 -2 -16 -8 -34 -11 -40 -4 -6 -8 -22 -9 -36 -1
-14 -9 -58 -18 -98 -9 -40 -18 -89 -21 -110 -3 -20 -7 -48 -9 -62 -12 -59 -26
-159 -31 -215 -3 -33 -8 -71 -10 -85 -26 -146 -26 -809 0 -995 3 -22 7 -60 9
-85 2 -25 7 -61 10 -80 3 -19 8 -51 11 -70 2 -19 7 -48 10 -65 3 -16 7 -46 9
-65 3 -19 5 -35 6 -35 1 0 3 -9 5 -20 5 -29 26 -137 29 -155 2 -8 6 -22 9 -30
3 -8 13 -46 21 -85 9 -38 19 -81 22 -95 4 -14 7 -31 7 -37 0 -7 4 -13 9 -13 4
0 8 -11 8 -25 0 -13 4 -34 9 -47 5 -13 19 -54 31 -93 11 -38 24 -77 27 -85 3
-8 7 -19 9 -25 15 -61 121 -327 170 -429 8 -16 14 -35 14 -43 0 -7 4 -13 8
-13 5 0 15 -18 22 -40 7 -22 18 -40 23 -40 6 0 8 -3 5 -6 -6 -5 69 -155 116
-234 12 -19 28 -48 36 -65 8 -16 17 -32 20 -35 3 -3 29 -45 59 -95 29 -49 62
-99 72 -110 10 -11 18 -23 18 -28 0 -8 24 -43 59 -87 12 -15 22 -32 22 -38 0
-6 3 -12 8 -14 12 -5 72 -86 72 -97 0 -5 3 -11 8 -13 4 -1 23 -23 42 -48 19
-25 40 -51 48 -58 7 -8 25 -30 40 -50 15 -21 30 -39 33 -42 3 -3 34 -39 70
-80 35 -41 131 -142 214 -225 141 -141 195 -192 311 -292 76 -65 91 -77 120
-98 15 -11 33 -26 40 -33 7 -6 17 -12 22 -12 6 0 12 -4 14 -8 2 -5 35 -31 73
-60 39 -28 75 -55 80 -60 14 -11 198 -131 276 -180 36 -23 71 -42 78 -42 6 0
11 -4 11 -9 0 -5 8 -12 19 -16 10 -3 67 -32 126 -65 59 -33 113 -60 120 -60 7
0 15 -4 17 -8 3 -9 151 -78 268 -127 36 -15 77 -34 93 -42 15 -8 27 -11 27 -8
0 3 10 0 23 -7 12 -7 24 -13 27 -14 13 -3 47 -16 62 -25 10 -5 26 -9 36 -9 10
0 22 -3 26 -8 4 -4 11 -7 14 -8 4 0 14 -4 22 -7 77 -33 474 -140 642 -172 46
-9 92 -18 104 -21 11 -2 36 -6 55 -8 19 -3 34 -5 34 -6 0 -1 18 -3 40 -6 22
-2 54 -6 70 -9 40 -8 142 -18 183 -19 17 0 32 -3 32 -6 0 -3 34 -5 75 -5 41 0
75 -2 75 -5 0 -3 44 -5 98 -5 53 1 103 -3 110 -8 7 -6 12 -6 12 0 0 8 37 10
48 3 7 -5 71 -3 85 3 9 3 19 2 22 -4 4 -5 11 -6 18 -2 9 6 101 11 285 15 23 1
42 4 42 7 0 3 24 6 53 7 28 1 81 5 117 9 36 4 76 9 90 10 14 2 25 4 25 5 0 1
14 3 30 5 17 1 32 4 35 5 3 1 8 2 13 1 4 -1 26 3 50 8 23 5 58 12 77 15 19 3
69 12 110 21 41 9 82 18 90 20 64 13 272 70 349 94 52 16 98 28 102 25 4 -2 9
0 11 4 1 5 44 23 93 40 50 16 104 36 120 43 17 7 32 13 35 14 36 12 81 31 141
59 31 14 59 26 62 26 6 0 288 139 342 169 16 9 73 42 127 74 54 31 102 57 108
57 5 0 10 4 10 8 0 5 11 14 25 20 14 7 31 17 38 22 7 6 43 31 82 56 38 25 78
52 87 61 10 9 18 12 18 7 0 -5 4 -4 8 1 9 13 140 115 147 115 4 0 33 23 69 55
6 6 34 28 61 49 28 22 60 49 72 60 11 12 40 37 63 56 65 53 379 367 440 439
30 36 65 76 77 90 67 79 131 161 221 286 56 77 106 145 112 152 5 7 10 14 10
17 0 2 17 31 39 63 111 168 361 639 361 681 0 6 5 12 12 12 6 0 9 3 5 6 -3 4
1 21 10 38 9 17 18 36 19 41 1 6 28 75 58 155 31 80 58 152 60 160 2 8 6 24
10 35 5 11 12 31 17 45 5 14 12 37 14 51 3 13 13 51 24 84 11 32 17 63 15 67
-3 4 -1 8 4 8 5 0 9 6 10 13 0 6 3 23 6 37 3 14 8 34 10 45 2 11 12 49 21 84
9 35 18 77 20 92 2 16 6 36 9 46 3 10 7 34 10 53 3 19 8 46 11 60 2 13 7 40
10 60 3 20 7 45 9 56 2 12 7 45 10 75 4 30 9 70 11 89 6 45 13 112 22 225 10
117 10 614 0 730 -10 115 -13 138 -32 297 -14 114 -78 453 -85 453 -1 0 -3 11
-5 25 -2 14 -8 43 -14 65 -7 22 -13 45 -15 50 -1 6 -8 36 -16 68 -7 31 -17 57
-22 57 -5 0 -7 4 -4 9 10 16 -134 425 -200 568 -24 52 -46 104 -49 113 -2 12
-146 290 -179 348 -20 35 -36 68 -36 73 0 5 -4 9 -8 9 -4 0 -19 22 -33 50 -13
27 -27 50 -30 50 -4 0 -12 14 -19 30 -7 17 -15 30 -19 30 -3 0 -12 13 -19 28
-6 16 -20 37 -30 48 -10 10 -21 26 -24 34 -9 23 -224 312 -268 359 -8 9 -33
39 -55 66 -97 120 -379 407 -510 520 -38 33 -80 70 -93 83 -12 12 -25 22 -29
22 -3 0 -15 9 -27 20 -30 28 -215 170 -221 170 -3 0 -11 5 -18 10 -48 40 -66
54 -99 72 -21 12 -38 25 -38 30 0 4 -4 8 -10 8 -9 0 -72 39 -97 60 -7 5 -15
10 -18 10 -4 0 -25 12 -48 28 -56 36 -73 46 -132 78 -27 15 -53 32 -57 38 -4
6 -8 8 -8 4 0 -4 -21 5 -47 20 -27 16 -79 43 -118 61 -92 44 -235 110 -260
121 -11 4 -36 15 -55 23 -46 20 -92 39 -105 43 -5 2 -41 15 -80 29 -217 79
-442 146 -645 189 -14 3 -45 10 -70 16 -25 6 -56 12 -70 14 -14 1 -52 8 -85
14 -33 6 -80 14 -105 17 -25 3 -57 7 -71 10 -25 6 -85 12 -184 21 -27 2 -75 6
-105 9 -30 3 -103 7 -161 9 -58 1 -111 6 -117 10 -6 3 -13 2 -17 -3 -4 -7 -15
-7 -30 -1 -14 5 -25 6 -25 2 0 -9 -69 -6 -77 2 -3 3 -15 1 -28 -4 -13 -5 -26
-5 -32 1 -5 5 -13 6 -16 2z m61 -969 c12 0 22 3 22 8 0 5 5 6 11 3 17 -11 59
-13 65 -3 3 4 10 5 16 2 5 -3 64 -8 131 -10 67 -3 138 -6 157 -8 19 -2 62 -7
95 -10 33 -4 76 -9 95 -11 19 -3 53 -7 75 -10 22 -3 47 -7 55 -10 8 -2 34 -7
58 -10 23 -3 100 -19 170 -36 70 -17 137 -33 150 -35 13 -3 44 -12 69 -20 26
-9 58 -18 72 -21 14 -2 31 -9 38 -15 7 -6 13 -8 13 -5 0 3 37 -8 83 -25 45
-16 87 -31 92 -32 6 -1 26 -9 45 -18 19 -8 53 -21 75 -29 22 -7 48 -20 59 -29
10 -8 19 -14 20 -12 5 12 252 -111 418 -207 68 -40 229 -143 240 -155 8 -7 24
-19 38 -26 13 -7 29 -17 34 -22 6 -5 38 -29 71 -54 77 -58 125 -96 139 -109 6
-6 27 -23 46 -39 19 -15 60 -51 90 -80 31 -28 75 -68 98 -88 23 -21 41 -38 39
-38 -2 0 41 -46 95 -101 54 -56 98 -104 98 -108 0 -3 20 -27 43 -52 23 -26 53
-61 67 -79 14 -18 30 -37 35 -44 6 -6 40 -51 75 -101 36 -49 69 -94 73 -100
13 -16 123 -189 130 -205 4 -8 16 -28 27 -45 11 -16 23 -37 27 -45 4 -8 22
-41 39 -72 18 -32 30 -58 26 -58 -4 0 -2 -4 4 -8 39 -26 270 -608 299 -752 2
-8 15 -60 28 -115 24 -93 52 -231 62 -300 3 -16 7 -39 9 -50 2 -12 7 -48 11
-80 4 -33 9 -71 11 -85 25 -162 25 -757 -1 -885 -3 -11 -7 -42 -10 -70 -2 -27
-7 -59 -9 -70 -2 -11 -7 -42 -10 -70 -4 -27 -9 -57 -11 -65 -4 -16 -14 -61
-19 -95 -2 -11 -11 -53 -21 -94 -9 -40 -19 -80 -20 -90 -2 -9 -4 -17 -5 -18
-2 -2 -4 -7 -5 -13 -1 -5 -4 -13 -5 -17 -2 -5 -4 -12 -5 -18 -2 -15 -35 -127
-42 -145 -3 -8 -7 -22 -9 -31 -2 -9 -9 -29 -15 -45 -7 -16 -13 -31 -13 -34
-15 -79 -261 -619 -287 -628 -5 -2 -9 -12 -9 -22 0 -10 -3 -20 -8 -22 -4 -1
-27 -37 -51 -78 -68 -116 -210 -319 -290 -416 -14 -17 -39 -47 -56 -68 -121
-151 -402 -431 -540 -537 -16 -13 -39 -32 -50 -42 -11 -10 -32 -26 -47 -35
-16 -9 -28 -20 -28 -24 0 -4 -6 -8 -14 -8 -8 0 -16 -4 -18 -9 -4 -12 -156
-121 -169 -121 -5 0 -9 -5 -9 -11 0 -5 -4 -7 -10 -4 -5 3 -10 2 -10 -3 0 -5
-12 -15 -27 -23 -16 -8 -30 -16 -33 -19 -8 -8 -111 -70 -116 -70 -2 0 -23 -12
-45 -26 -57 -36 -368 -191 -399 -198 -6 -2 -205 -79 -235 -92 -11 -4 -24 -9
-30 -9 -5 -1 -17 -5 -25 -8 -57 -23 -341 -101 -440 -121 -14 -3 -38 -8 -55
-11 -16 -4 -43 -8 -60 -10 -16 -1 -37 -5 -45 -8 -15 -6 -73 -15 -140 -22 -19
-2 -60 -7 -90 -10 -30 -3 -75 -8 -100 -11 -25 -3 -96 -7 -158 -8 -62 -2 -115
-6 -119 -9 -3 -4 -10 -4 -15 0 -15 9 -108 9 -108 0 0 -5 -5 -5 -10 -2 -6 4
-57 9 -113 11 -56 2 -124 6 -152 8 -27 3 -77 7 -110 10 -33 3 -76 9 -95 13
-19 3 -38 6 -42 5 -17 -4 -288 53 -423 88 -208 55 -374 110 -542 182 -16 6
-30 12 -33 13 -42 15 -333 159 -370 184 -14 9 -38 23 -55 31 -16 8 -32 18 -35
21 -3 3 -31 21 -64 40 -32 19 -69 41 -81 49 -53 35 -180 124 -185 130 -3 3
-21 17 -40 30 -19 13 -43 31 -52 39 -10 9 -29 25 -43 36 -132 102 -384 342
-502 480 -28 33 -61 71 -73 85 -12 14 -34 41 -49 60 -14 19 -28 37 -31 40 -3
3 -23 30 -45 60 -22 30 -42 57 -45 60 -9 7 -180 268 -180 273 0 3 -18 35 -40
71 -22 36 -40 70 -40 75 0 5 -3 11 -7 13 -10 4 -113 212 -113 227 0 6 -4 11
-10 11 -5 0 -9 3 -8 8 1 7 -3 18 -42 107 -44 99 -120 316 -120 341 0 8 -5 14
-12 14 -6 0 -9 3 -6 6 4 3 2 20 -4 37 -10 32 -38 133 -43 152 -1 6 -5 21 -8
35 -23 94 -37 160 -43 195 -3 22 -7 45 -9 50 -5 23 -15 82 -19 110 -2 17 -5
30 -6 30 -2 0 -8 58 -12 112 -2 24 -5 43 -8 43 -3 0 -5 21 -6 48 -1 64 -13
338 -15 348 -1 5 -1 11 0 14 7 17 5 100 -2 100 -5 0 -5 4 -2 10 3 5 8 47 11
92 6 125 13 223 18 260 3 18 8 55 11 81 4 27 9 59 11 70 3 12 7 40 10 62 8 57
12 80 14 80 1 0 4 11 6 25 8 54 11 66 17 85 3 11 8 31 11 45 4 21 14 67 31
130 2 8 4 15 5 15 1 0 3 9 5 19 3 16 11 48 20 76 1 3 7 25 14 50 7 25 16 50
19 55 4 6 8 17 9 26 1 9 8 29 14 45 7 16 13 31 14 34 3 14 48 129 60 157 8 17
15 34 15 37 0 3 16 40 35 82 19 41 35 80 35 85 0 5 4 9 10 9 5 0 9 3 8 8 -2 7
59 130 102 207 13 22 34 60 48 85 24 43 185 291 207 318 5 7 18 22 28 33 9 10
17 21 17 24 -1 6 17 28 117 150 93 114 120 142 274 295 157 156 254 243 275
248 8 2 14 7 14 11 0 4 42 38 93 77 50 38 94 71 97 74 10 11 269 180 275 180
4 0 19 8 33 19 72 50 424 226 512 256 14 5 48 18 70 27 94 38 321 111 452 144
100 25 116 29 168 39 14 3 36 7 50 10 14 3 41 8 60 11 19 3 44 8 54 11 11 3
38 7 60 9 23 2 50 5 61 7 54 12 225 27 347 31 43 1 81 5 85 9 3 4 9 4 12 0 3
-5 16 -8 29 -9z"/>
<path d="M4156 8243 c-4 -4 -31 -8 -59 -9 -46 -1 -117 -8 -197 -19 -14 -2 -45
-7 -70 -10 -24 -3 -50 -10 -56 -16 -6 -5 -13 -7 -15 -4 -12 11 -344 -102 -379
-129 -8 -7 -33 -20 -55 -30 -22 -10 -59 -31 -83 -47 -24 -16 -47 -29 -53 -29
-5 0 -9 -4 -9 -8 0 -4 -12 -15 -27 -24 -63 -38 -187 -154 -260 -243 -35 -43
-116 -169 -118 -185 -1 -3 -11 -25 -22 -50 -21 -44 -42 -104 -48 -138 -2 -9
-4 -17 -5 -17 -1 0 -3 -9 -5 -20 -2 -11 -6 -31 -10 -45 -4 -14 -8 -450 -9
-969 -1 -912 -1 -947 18 -1004 32 -99 139 -192 259 -228 26 -7 47 -17 47 -21
0 -4 332 -6 738 -5 l737 2 75 27 c41 15 76 32 78 38 2 5 8 10 14 10 19 0 88
62 118 105 53 78 55 97 54 646 -1 579 3 554 -97 654 -71 70 -145 107 -267 132
-14 3 -209 7 -435 8 -225 1 -413 3 -417 4 -11 2 -8 479 3 531 12 55 56 150 69
150 6 0 10 5 10 10 0 16 79 88 138 126 67 43 208 91 292 99 36 4 71 8 78 10 6
3 12 0 12 -6 0 -6 5 -7 12 -3 6 4 41 8 77 9 46 1 80 9 111 25 47 23 80 52 80
69 0 5 6 11 13 13 9 4 13 58 14 219 2 118 0 223 -3 234 -15 56 -106 120 -186
130 -47 6 -45 6 -103 2 -22 -1 -43 1 -46 6 -3 4 -9 4 -13 0z"/>
<path d="M6817 8234 c-1 -1 -31 -4 -67 -8 -64 -6 -110 -12 -160 -22 -14 -3
-36 -7 -50 -9 -14 -2 -25 -4 -25 -5 0 -2 -20 -7 -60 -15 -104 -21 -356 -127
-460 -193 -22 -15 -43 -25 -47 -24 -5 1 -8 -2 -8 -7 0 -5 -27 -26 -59 -47 -33
-21 -57 -42 -55 -46 3 -5 1 -8 -5 -8 -26 0 -222 -216 -236 -260 -4 -11 -11
-20 -16 -20 -6 0 -7 -4 -4 -10 3 -5 2 -10 -3 -10 -6 0 -40 -57 -47 -80 -4 -12
-26 -67 -35 -85 -5 -11 -17 -51 -26 -90 -9 -38 -18 -79 -21 -90 -9 -35 -9
-1888 0 -1925 23 -94 99 -184 198 -232 112 -55 77 -53 839 -55 591 -2 715 0
767 12 164 39 284 139 316 263 9 37 12 178 12 553 l-1 504 -28 57 c-16 35 -48
76 -79 104 -51 46 -151 100 -198 106 -13 2 -30 8 -38 12 -8 5 -208 10 -445 10
l-431 1 0 255 c1 140 4 270 7 288 16 83 83 179 175 250 87 68 269 132 374 131
148 0 231 13 262 39 9 8 17 12 17 9 0 -3 11 4 25 17 48 45 55 80 54 278 0 101
-2 197 -5 214 -8 42 -66 103 -121 126 -22 9 -306 20 -316 12z"/>
<path d="M3056 4163 c-3 -3 -21 -7 -38 -8 -72 -4 -195 -51 -234 -90 -8 -7 -24
-22 -37 -32 -58 -47 -137 -181 -142 -242 -1 -15 -5 -32 -8 -38 -9 -15 -1 -163
12 -203 13 -40 61 -140 76 -156 5 -6 30 -35 55 -64 50 -59 233 -245 295 -300
22 -20 78 -66 125 -103 47 -37 90 -71 96 -76 5 -4 20 -13 31 -20 12 -6 27 -17
35 -23 58 -56 374 -234 538 -303 99 -42 257 -102 290 -110 8 -2 42 -13 75 -24
33 -11 69 -21 81 -21 11 0 24 -3 28 -7 3 -4 17 -8 29 -10 18 -2 37 -7 77 -18
3 -1 39 -7 80 -14 41 -7 82 -15 90 -18 8 -3 33 -7 55 -9 22 -2 58 -6 80 -9 22
-2 75 -7 118 -11 96 -7 99 -8 113 -17 6 -3 14 -4 18 0 3 3 86 8 183 9 98 2
201 5 228 9 28 3 73 8 100 10 49 5 90 12 90 15 0 1 16 3 35 5 51 6 95 13 95
15 0 2 7 3 60 14 17 3 44 8 60 12 17 3 37 8 45 11 8 4 19 5 24 4 4 -1 14 3 20
9 7 5 16 7 19 4 3 -3 12 -2 19 2 7 5 18 9 23 11 37 8 53 13 80 23 17 6 37 13
45 15 28 6 176 63 243 93 37 17 67 28 67 24 0 -4 4 -2 8 3 4 6 32 21 62 35 30
14 57 28 60 31 3 3 16 10 30 14 14 4 27 10 30 14 5 6 21 15 99 58 25 14 61 36
79 50 17 13 32 20 32 16 0 -4 4 -3 8 3 4 6 36 30 72 54 36 24 70 48 75 52 6 5
28 22 50 39 44 33 49 37 145 118 96 82 256 245 357 364 65 77 113 207 113 311
0 91 -47 226 -100 286 -12 14 -32 36 -44 50 -56 67 -189 131 -281 135 -22 2
-44 4 -50 5 -5 1 -12 1 -15 0 -3 -1 -21 -3 -40 -4 -19 -1 -51 -6 -70 -10 -44
-10 -160 -66 -160 -77 0 -5 -4 -9 -10 -9 -14 0 -135 -126 -174 -181 -9 -13
-16 -21 -16 -18 0 3 -28 -22 -63 -55 -79 -77 -105 -99 -192 -164 -38 -29 -79
-60 -90 -68 -11 -9 -36 -24 -55 -35 -19 -11 -57 -33 -85 -50 -43 -26 -170 -91
-185 -94 -3 -1 -27 -11 -53 -23 -27 -12 -50 -22 -52 -22 -2 0 -16 -5 -32 -12
-15 -6 -30 -12 -33 -12 -3 -1 -9 -4 -15 -7 -5 -4 -26 -10 -45 -14 -19 -4 -41
-12 -47 -17 -7 -6 -13 -8 -13 -5 0 3 -15 1 -32 -4 -39 -12 -64 -18 -98 -25
-14 -3 -32 -7 -40 -9 -8 -3 -33 -7 -55 -11 -22 -3 -51 -8 -65 -10 -54 -9 -148
-17 -212 -18 -38 0 -68 -5 -68 -9 0 -5 -5 -5 -11 -2 -16 11 -69 12 -69 2 0 -4
-5 -5 -11 -1 -6 3 -43 8 -82 10 -84 5 -172 12 -172 14 0 1 -12 4 -27 6 -16 2
-40 6 -55 8 -16 2 -28 5 -28 6 0 1 -11 3 -25 5 -14 1 -45 8 -70 15 -25 7 -52
14 -60 16 -54 10 -206 62 -295 102 -135 60 -358 187 -433 247 -134 106 -272
237 -397 377 -46 51 -142 118 -174 121 -11 1 -21 4 -21 8 0 8 -62 22 -111 24
-20 1 -40 5 -46 8 -6 4 -13 4 -17 0z"/>
</g>
</svg>
